<svg width="38" height="38" viewBox="0 0 38 38" fill="none" xmlns="http://www.w3.org/2000/svg">
<path d="M8.33333 29.1667H12.5V14.5833H8.33333V29.1667ZM16.6667 29.1667H20.8333V8.33333H16.6667V29.1667ZM25 29.1667H29.1667V20.8333H25V29.1667ZM4.16667 37.5C3.02083 37.5 2.03993 37.092 1.22396 36.276C0.407986 35.4601 0 34.4792 0 33.3333V4.16667C0 3.02083 0.407986 2.03993 1.22396 1.22396C2.03993 0.407986 3.02083 0 4.16667 0H33.3333C34.4792 0 35.4601 0.407986 36.276 1.22396C37.092 2.03993 37.5 3.02083 37.5 4.16667V33.3333C37.5 34.4792 37.092 35.4601 36.276 36.276C35.4601 37.092 34.4792 37.5 33.3333 37.5H4.16667ZM4.16667 33.3333H33.3333V4.16667H4.16667V33.3333Z" fill="#8DCECE"/>
</svg>
